<svg xmlns="http://www.w3.org/2000/svg" viewBox="0 0 512.001 512" class="u-svg-content"><path d="M512 256c0 27.96-4.484 54.867-12.77 80.059-.082.261-.168.511-.25.773-.168.492-.324.98-.5 1.461a226.294 226.294 0 0 1-1.734 4.965 248.345 248.345 0 0 1-5.883 14.754c-.031.082-.074.168-.105.25a256.511 256.511 0 0 1-9.563 19.593 242.642 242.642 0 0 1-5.84 10.188C430.551 462.324 349.082 511.996 256 511.996c-93.078 0-174.547-49.672-219.352-123.953a247.136 247.136 0 0 1-5.843-10.188 257.938 257.938 0 0 1-9.559-19.593 247.755 247.755 0 0 1-5.027-12.422 252.831 252.831 0 0 1-2.672-7.473c-.223-.656-.442-1.316-.66-1.972-.282-.868-.563-1.747-.848-2.625-.238-.75-.48-1.504-.71-2.258C3.964 307.648.003 282.277.003 256 .004 114.613 114.617 0 256 0c141.387 0 256 114.613 256 256zm0 0" fill="#3fb777"/><path d="M489.023 330.102v21.597c-25.222 55.285-69.539 100.016-124.511 125.785a253.364 253.364 0 0 1-30.887 12.067 251.45 251.45 0 0 1-36.902 8.77c-.055.007-.118 10.468-.168 10.468V330.102c0-38.086 29.328-69.329 66.652-72.336a69.613 69.613 0 0 1 5.934-.243h47.273c5.59 0 11.035.618 16.258 1.82 32.266 7.376 56.351 36.266 56.351 70.759zm0 0" fill="#bfd5de"/><path d="M488.93 326.29H333.719c1.996-38.317 33.699-68.767 72.508-68.767h10.195c38.82 0 70.512 30.45 72.508 68.766zm0 0" fill="#dde8ed"/><path d="M321.738 177.465c0 11.988-8.761 21.93-20.23 23.777a24.09 24.09 0 0 1-3.856.309c-13.308 0-24.086-10.781-24.086-24.086 0-13.305 10.778-24.086 24.086-24.086 1.313 0 2.606.105 3.856.309 11.469 1.847 20.23 11.789 20.23 23.777zm0 0" fill="#d3a489"/><path d="m412.273 283.71-19.488 31.255-19.484-31.254" fill="#f74f4f"/><path d="m419.004 403.262-26.215 33.09-26.227-33.09 26.231-96.43zm0 0" fill="#f74f4f"/><path d="M321.738 177.465c0 11.988-8.761 21.93-20.23 23.777a89.612 89.612 0 0 1-3.196-23.777c0-8.227 1.114-16.2 3.196-23.778 11.469 1.848 20.23 11.79 20.23 23.778zm0 0" fill="#bf8e75"/><path d="M306.262 177.465a8.61 8.61 0 0 1-17.219 0 8.61 8.61 0 0 1 17.219 0zm0 0" fill="#bf8e75"/><path d="m392.781 287.234-32.683 18.164-9.942-46.242 20.309-11.96m22.316 40.038 32.68 18.164 9.941-46.242-20.304-11.96" fill="#bfd5de"/><path d="M463.828 177.465c0 11.988 8.758 21.93 20.227 23.777 1.254.203 2.547.309 3.86.309 13.308 0 24.085-10.781 24.085-24.086 0-13.305-10.777-24.086-24.086-24.086a24.08 24.08 0 0 0-3.86.309c-11.468 1.847-20.226 11.789-20.226 23.777zm0 0" fill="#d3a489"/><g fill="#bf8e75"><path d="M463.828 177.465c0 11.988 8.758 21.93 20.227 23.777a89.454 89.454 0 0 0 3.199-23.777c0-8.227-1.113-16.2-3.2-23.778-11.468 1.848-20.226 11.79-20.226 23.778zm0 0"/><path d="M496.523 177.465a8.61 8.61 0 0 1-17.218 0 8.61 8.61 0 0 1 17.218 0zm0 0"/><path d="M482.398 164.664c0 44.594-32.578 81.59-75.23 88.457a88.597 88.597 0 0 1-14.383 1.156c-49.496 0-89.617-40.117-89.617-89.613 0-23.418 8.137-58.574 22.84-74.539 16.379-17.777 40.699-15.078 66.777-15.078 4.899 0 9.703.39 14.383 1.16 42.652 6.867 75.23 43.86 75.23 88.457zm0 0"/><path d="M418.684 229.555v31.785c0 11.637-7.672 21.472-18.243 24.738a25.844 25.844 0 0 1-7.66 1.156c-14.304 0-25.898-11.59-25.898-25.894v-31.785zm0 0"/></g><path d="M418.684 259.328v2.012c0 11.637-7.672 21.473-18.243 24.742-9.535-2.934-16.703-11.223-18.027-21.367a88.56 88.56 0 0 0 19.602-1 88.107 88.107 0 0 0 16.668-4.387zm63.714-94.664c0 44.594-32.578 81.59-75.23 88.457-42.656-6.867-75.234-43.863-75.234-88.457 0-27.46 12.351-52.039 31.812-68.48 12.129-10.258 27.035-17.34 43.422-19.98 39.766 6.401 70.781 39 74.789 79.523.293 2.941.441 5.925.441 8.937zm0 0" fill="#d3a489"/><path d="M392.785 208.8c-7.504 0-15.008-1.882-21.848-5.64a3.986 3.986 0 1 1 3.84-6.988c11.278 6.2 24.739 6.2 36.016 0a3.99 3.99 0 0 1 5.414 1.574 3.989 3.989 0 0 1-1.574 5.414c-6.84 3.758-14.344 5.64-21.848 5.64zm0 0" fill="#bf8e75"/><path d="M373.7 159.445c0 5.618-4.552 10.168-10.165 10.168a10.166 10.166 0 0 1-10.168-10.168c0-5.613 4.551-10.164 10.168-10.164 5.613 0 10.164 4.551 10.164 10.164zm58.5 0c0 5.618-4.552 10.168-10.165 10.168-5.613 0-10.168-4.55-10.168-10.168 0-5.613 4.555-10.164 10.168-10.164 5.613 0 10.164 4.551 10.164 10.164zm0 0" fill="#3d4159"/><path d="M371.629 157.652a4.358 4.358 0 0 1-8.715 0 4.358 4.358 0 0 1 8.715 0zm59 0a4.358 4.358 0 0 1-8.715 0 4.358 4.358 0 0 1 8.715 0zm0 0" fill="#fff"/><path d="M402.95 185.043h-20.333c-2.422 0-4.383-1.965-4.383-4.387s1.961-4.383 4.383-4.383h20.332a4.384 4.384 0 1 1 0 8.77zm0 0" fill="#bf8e75"/><path d="M387.54 49.445c27.147 1.942 48.944 23.871 50.323 51.477l.258 5.183h15.617l8.41 55.93 20.372-6.305-2.735-54.808c-1.445-28.996-25.43-51.723-54.453-51.617zm0 0" fill="#2a2f4f"/><path d="M478.059 27.816c21.617 21.618 21.617 56.668 0 78.286-21.618 21.617-56.668 21.617-78.286 0zm0 0" fill="#3d4159"/><path d="M399.777 106.102h-67.941l-8.414 55.933-20.371-6.305 2.734-54.808c1.442-28.992 25.426-51.727 54.453-51.617l98.121.37 12.973 23.348" fill="#3d4159"/><path d="M398.027 49.445c-27.144 1.942-48.941 23.871-50.324 51.477l-.258 5.183h-15.613l-8.414 55.93-20.371-6.305 2.738-54.808c1.442-28.996 25.426-51.723 54.45-51.617zm0 0" fill="#2a2f4f"/><path d="M499.23 336.059c-.082.261-.167.511-.25.773-.167.492-.324.98-.5 1.461l-7.996-2.254-12.191-15.676 6.812-14.597zm0 0" fill="#dde8ed"/><path d="M201.293 332.246v173.89c-80.781-17.585-147.32-73.3-179.816-147.35v-26.54c0-31.379 21.304-57.785 50.246-65.516a53.468 53.468 0 0 1 3.21-.785 66.114 66.114 0 0 1 8.817-1.293c1.828-.148 3.68-.23 5.55-.23h44.169c4.941 0 9.746.52 14.386 1.523.274.055.532.118.793.18.786.176 1.559.363 2.332.574a.384.384 0 0 0 .063.02 67.335 67.335 0 0 1 21.055 9.77c17.648 12.245 29.195 32.652 29.195 55.757zm0 0" fill="#3d4159"/><path d="m151.207 265.95-.164.769-21.637 100.601c-1.117.098-2.242.184-3.367.262-1.582.102-3.176.2-4.777.27-3.274.156-6.563.234-9.867.234-3.395 0-6.762-.078-10.114-.242a157.68 157.68 0 0 1-4.547-.27 237.36 237.36 0 0 1-3.382-.25L71.727 266.727l-.165-.778zm0 0" fill="#66baed"/><path d="m129.594 288.895-18.207 29.203-18.207-29.203" fill="#dde8ed"/><path d="M126.04 367.582c-1.583.102-11.34 51.703-14.65 51.703-3.394 0-13.14-51.598-14.656-51.71l14.657-57.079zm0 0" fill="#dde8ed"/><path d="m111.379 292.188-30.531 16.968-9.29-43.203 18.973-11.176m20.848 37.411 30.535 16.968 9.29-43.203-18.974-11.176" fill="#2ba1cf"/><path d="M152.36 324.25h9.683L120.488 431.8l-8.18 21.18-9.07-22.535 8.348-28.664L150.98 266.7l.23-.754 20.888 6.825zm0 0" fill="#2a2f4f"/><path d="m120.488 431.8-8.18 21.18-9.07-22.535L60.492 324.25h9.696L50.44 272.77l20.895-6.825.223.754 40.027 135.082zm0 0" fill="#2a2f4f"/><path d="M135.582 238.297v29.7c0 10.87-7.168 20.058-17.043 23.108a24.063 24.063 0 0 1-7.156 1.082c-13.363 0-24.195-10.828-24.195-24.195v-29.695zm0 0" fill="#eab599"/><path d="M135.582 266.113v1.883c0 10.871-7.168 20.059-17.043 23.11-8.906-2.739-15.605-10.485-16.844-19.961a82.772 82.772 0 0 0 18.313-.934 82.11 82.11 0 0 0 15.574-4.098zm-90.578-76.484c0 11.203-8.18 20.492-18.895 22.215a22.38 22.38 0 0 1-3.605.289C10.07 212.133 0 202.063 0 189.629c0-12.43 10.07-22.504 22.504-22.504 1.226 0 2.433.102 3.605.29 10.715 1.726 18.895 11.01 18.895 22.214zm0 0" fill="#f6caae"/><path d="M45.004 189.629c0 11.203-8.18 20.492-18.895 22.215-1.949-7.078-2.988-14.528-2.988-22.215s1.04-15.137 2.988-22.215c10.715 1.727 18.895 11.012 18.895 22.215zm0 0" fill="#eab599"/><path d="M30.547 189.629a8.044 8.044 0 1 1-16.088-.002 8.044 8.044 0 0 1 16.088.002zm0 0" fill="#eab599"/><path d="M177.762 189.629c0 11.203 8.183 20.492 18.898 22.215 1.172.191 2.375.289 3.606.289 12.43 0 22.5-10.07 22.5-22.504 0-12.43-10.07-22.504-22.5-22.504-1.23 0-2.434.102-3.606.29-10.715 1.726-18.898 11.01-18.898 22.214zm0 0" fill="#f6caae"/><path d="M177.762 189.629c0 11.203 8.183 20.492 18.898 22.215 1.945-7.078 2.985-14.528 2.985-22.215s-1.04-15.137-2.985-22.215c-10.715 1.727-18.898 11.012-18.898 22.215zm0 0" fill="#eab599"/><path d="M195.11 145.79v31.882c0 41.664-30.438 76.226-70.29 82.64-.132.024-.277.043-.41.067a82.238 82.238 0 0 1-13.027 1.016c-46.238 0-83.723-37.485-83.723-83.723v-31.883c0-9.738 1.66-19.094 4.73-27.785 11.45-32.582 42.497-55.945 78.993-55.945h.004c4.433 0 8.793.343 13.039 1.011 40.047 6.262 70.683 40.914 70.683 82.72zm0 0" fill="#eab599"/><path d="M208.305 189.629a8.041 8.041 0 1 1-16.082 0 8.041 8.041 0 1 1 16.082 0zm0 0" fill="#eab599"/><path d="M195.11 145.79v31.882c0 41.664-30.438 76.226-70.29 82.64-.132.024-.277.043-.41.067-40.047-6.258-70.676-40.91-70.676-82.707v-31.883c0-41.805 30.637-76.457 70.692-82.719 40.047 6.262 70.683 40.914 70.683 82.72zm0 0" fill="#f6caae"/><path d="M93.555 172.797c0 5.242-4.254 9.496-9.5 9.496-5.243 0-9.496-4.254-9.496-9.496 0-5.246 4.254-9.5 9.496-9.5 5.246 0 9.5 4.254 9.5 9.5zm54.655 0c0 5.242-4.25 9.496-9.495 9.496s-9.5-4.254-9.5-9.496c0-5.246 4.254-9.5 9.5-9.5s9.496 4.254 9.496 9.5zm0 0" fill="#3d4159"/><path d="M91.617 171.121a4.067 4.067 0 0 1-4.07 4.066 4.07 4.07 0 1 1 4.07-4.066zm55.125 0a4.069 4.069 0 0 1-4.07 4.066 4.07 4.07 0 1 1 4.07-4.066zm0 0" fill="#fff"/><path d="M120.883 192.984h-18.996a4.097 4.097 0 1 1 0-8.195h18.996a4.098 4.098 0 0 1 0 8.195zm-9.5 25.922c-7.008 0-14.02-1.758-20.41-5.27a3.726 3.726 0 0 1-1.47-5.058 3.722 3.722 0 0 1 5.06-1.469c10.535 5.79 23.113 5.79 33.648 0a3.717 3.717 0 0 1 5.055 1.47 3.723 3.723 0 0 1-1.47 5.058c-6.39 3.511-13.401 5.27-20.413 5.27zm0 0" fill="#eab599"/><path d="M195.11 116.855v32.66h-15.583v-25.577L67.043 103.035l-23.8-4.426v50.907H27.66v-32.66c0-37.231 30.176-67.407 67.399-67.407h32.648c.887 0 1.773.012 2.66.059 35.988 1.383 64.742 31.004 64.742 67.347zm0 0" fill="#e8c934"/><path d="M195.11 116.855v32.66h-15.583v-25.577L67.043 103.035c6.2-29.765 32.023-52.32 63.324-53.527 35.988 1.383 64.742 31.004 64.742 67.347zm0 0" fill="#ffe152"/><path d="M481.195 377.855a242.642 242.642 0 0 1-5.84 10.188C430.551 462.324 349.082 511.996 256 511.996c-93.078 0-174.547-49.672-219.352-123.953a247.136 247.136 0 0 1-5.843-10.188zm0 0" fill="#a35418"/><path d="M490.758 358.262a256.511 256.511 0 0 1-9.563 19.593 242.642 242.642 0 0 1-5.84 10.188H36.648a247.136 247.136 0 0 1-5.843-10.188 257.938 257.938 0 0 1-9.559-19.593zm0 0" fill="#cc7a3b"/><path d="M498.98 336.832a254.934 254.934 0 0 1-8.117 21.18c-.828.168-1.672.25-2.55.25h-191.06c-7.386 0-13.374-5.989-13.374-13.375 0-2.164.512-4.2 1.422-6.008a13.428 13.428 0 0 1 2.496-3.45 13.346 13.346 0 0 1 9.457-3.917h191.059c4.355 0 8.242 2.09 10.667 5.32zm0 0" fill="#bfd5de"/><path d="M498.98 336.832a283.722 283.722 0 0 1-2.234 6.426 13.321 13.321 0 0 1-8.433 2.988H308.39a13.318 13.318 0 0 1-9.422-3.887c-1.89-1.882-1.946-5.007-.063-6.898l.031-.031a13.33 13.33 0 0 1 9.454-3.918h179.921c4.356 0 8.243 2.09 10.668 5.32zm0 0" fill="#dde8ed"/><path d="M422.707 344.887c0 3.699-1.492 7.043-3.918 9.457a13.303 13.303 0 0 1-9.453 3.918H376.23c-7.386 0-13.375-5.989-13.375-13.375 0-1.367.2-2.684.579-3.918a13.453 13.453 0 0 1 3.343-5.54 13.289 13.289 0 0 1 9.453-3.917h33.106c6.027 0 11.117 3.98 12.797 9.457.379 1.234.574 2.55.574 3.918zm0 0" fill="#bf8e75"/><path d="M422.133 340.969a13.453 13.453 0 0 1-3.344 5.539 13.303 13.303 0 0 1-9.453 3.918H376.23c-6.027 0-11.117-3.98-12.796-9.457a13.453 13.453 0 0 1 3.343-5.54 13.289 13.289 0 0 1 9.453-3.917h33.106c6.027 0 11.117 3.984 12.797 9.457zm0 0" fill="#d3a489"/><path d="m285.297 338.879 15.441-33.113 6.813 14.601-12.192 15.672" fill="#bfd5de"/><path d="M212.785 344.887c0 3.699-1.496 7.043-3.918 9.457a13.346 13.346 0 0 1-9.457 3.918H21.246a252.678 252.678 0 0 1-8.36-21.871v-.008l1.872-4.004.406-.867H199.41c5.223 0 9.758 3 11.953 7.367a13.321 13.321 0 0 1 1.422 6.008zm0 0" fill="#2a2f4f"/><path d="M211.352 338.879a13.336 13.336 0 0 1-2.497 3.45 13.332 13.332 0 0 1-9.457 3.917H19.48c-1.128 0-2.214-.148-3.261-.41a248.651 248.651 0 0 1-3.332-9.445l1.87-4.012a13.198 13.198 0 0 1 4.723-.867h179.918c5.227 0 9.762 3 11.954 7.367zm0 0" fill="#3d4159"/><path d="M133.8 344.887c0 3.699-1.491 7.043-3.917 9.457a13.305 13.305 0 0 1-9.457 3.918H87.324c-7.386 0-13.375-5.989-13.375-13.375 0-1.367.2-2.684.574-3.918a13.537 13.537 0 0 1 3.344-5.54 13.305 13.305 0 0 1 9.457-3.917h33.102c6.031 0 11.117 3.98 12.8 9.457.376 1.234.575 2.55.575 3.918zm0 0" fill="#bf8e75"/><path d="M133.227 340.969a13.453 13.453 0 0 1-3.344 5.539 13.305 13.305 0 0 1-9.457 3.918H87.324c-6.027 0-11.117-3.98-12.8-9.457a13.537 13.537 0 0 1 3.343-5.54 13.305 13.305 0 0 1 9.457-3.917h33.102c6.031 0 11.117 3.984 12.8 9.457zm0 0" fill="#d3a489"/><path d="m211.363 338.879-15.441-33.113-6.813 14.601 12.192 15.672M33.984 320.363l-8.675 11.149-3.52 4.527-8.242 2.328c-.223-.656-.442-1.316-.66-1.972v-.012l1.87-4.004.407-.867 12.008-25.746zm0 0" fill="#3d4159"/></svg>