<svg xmlns="http://www.w3.org/2000/svg" fill="#FFF" viewBox="0 0 512.001 512.001" style="enable-background:new 0 0 512.001 512.001" xml:space="preserve" class="u-svg-content"><path d="M501.801 90.455H10.199C4.567 90.455 0 95.021 0 100.654v268.728c0 28.764 23.4 52.165 52.165 52.165h407.671c28.764 0 52.165-23.401 52.165-52.165V100.654c-.001-5.633-4.568-10.199-10.2-10.199zm-10.199 278.926c0 17.516-14.25 31.766-31.766 31.766H52.165c-17.516 0-31.766-14.251-31.766-31.766V122.906l229.14 187.584a10.184 10.184 0 0 0 6.461 2.307c2.287 0 4.574-.767 6.452-2.3l177.306-144.829c4.362-3.564 5.01-9.988 1.447-14.351-3.565-4.363-9.988-5.011-14.351-1.446L256.007 289.423 37.879 110.853h453.723v258.528z"/><path d="M469.923 127.859c-3.563-4.363-9.99-5.011-14.35-1.447l-3.06 2.499c-4.363 3.564-5.011 9.988-1.448 14.351a10.177 10.177 0 0 0 7.905 3.747c2.269 0 4.552-.754 6.445-2.3l3.06-2.499c4.363-3.563 5.011-9.988 1.448-14.351z"/><g/><g/><g/><g/><g/><g/><g/><g/><g/><g/><g/><g/><g/><g/><g/></svg>