<svg xmlns="http://www.w3.org/2000/svg" fill="#FFF" viewBox="-21 -21 682.668 682" class="u-svg-content"><path d="M485 585.328a12.595 12.595 0 0 0-8.836 3.66c-2.324 2.332-3.664 5.555-3.664 8.84s1.332 6.512 3.664 8.836c2.324 2.324 5.55 3.664 8.836 3.664s6.516-1.34 8.832-3.664c2.332-2.324 3.668-5.55 3.668-8.836s-1.336-6.515-3.668-8.84a12.586 12.586 0 0 0-8.832-3.66zm0 0"/><path d="m637.277 590.043-92.925-116.762a12.519 12.519 0 0 0-7.512-4.5c-.414-.082-42.375-7.945-100.336-26.797-38.832-12.632-70.895-12.554-95.281.239-9.25 4.855-16.09 10.922-21.067 16.754-4.969-5.832-11.812-11.899-21.058-16.754-24.391-12.793-56.446-12.871-95.29-.239-57.956 18.852-99.921 26.715-100.331 26.793a12.504 12.504 0 0 0-7.508 4.504L3.043 590.043a12.51 12.51 0 0 0-1.484 13.215 12.508 12.508 0 0 0 11.261 7.07h266.56c5.351 17.352 21.543 30 40.637 30 19.097 0 35.289-12.648 40.64-30h73.93c6.898 0 12.5-5.601 12.5-12.5 0-6.906-5.602-12.5-12.5-12.5h-76.074l-24.567-24.57c3.137-6.309 10.813-18.356 26.563-26.617 24.289-12.735 58.066-12.211 100.402 1.558 65.715 21.375 114.777 31.832 128.715 34.614l11.95 15.015h-65.743c-6.902 0-12.5 5.594-12.5 12.5 0 6.899 5.598 12.5 12.5 12.5h91.664a12.5 12.5 0 0 0 9.781-20.285zm-524.609-97.598c12.664-2.582 49.848-10.742 98.875-26.687 34.082-11.09 61.617-10.824 79.64.754 10.5 6.75 15.024 15.453 16.477 18.851v37.578a88.287 88.287 0 0 0-16.238-10.937c-30.473-15.988-70.762-16.008-119.746-.078-39.406 12.816-73.07 21.691-96.192 27.238zm-61.973 77.867c13.934-2.78 62.996-13.238 128.715-34.609 42.008-13.668 75.606-14.281 99.86-1.84 16.027 8.223 23.789 20.196 27.011 26.668l-24.793 24.797H38.746zm269.32 45.016c-9.062 0-16.538-6.918-17.421-15.746L320 582.172l17.441 17.441c-.898 8.817-8.367 15.715-17.425 15.715zm148.63-103.398c-48.985-15.934-89.274-15.91-119.743.074a88.253 88.253 0 0 0-16.242 10.937v-37.609c1.57-3.672 6.98-14.047 20.172-20.969 17.945-9.41 44.203-8.925 75.941 1.395 49.032 15.945 86.211 24.105 98.88 26.687l37.187 46.73c-23.102-5.542-56.75-14.413-96.195-27.245zM67.902 424.09c1.457 5.629 6.532 9.367 12.094 9.367 1.035 0 2.09-.129 3.14-.402 6.684-1.73 10.696-8.551 8.97-15.235l-67.5-260.62c-1.735-6.684-8.56-10.7-15.235-8.97-6.684 1.73-10.7 8.555-8.969 15.235zm488.965 8.965c1.047.273 2.102.402 3.137.402 5.562 0 10.637-3.738 12.098-9.367l67.5-260.625c1.726-6.68-2.286-13.504-8.973-15.235-6.684-1.73-13.5 2.286-15.234 8.97l-67.5 260.62c-1.727 6.684 2.285 13.504 8.972 15.235zM125.797 41.148c6.902 0 12.5-5.601 12.5-12.5V12.832c0-6.898-5.598-12.5-12.5-12.5-6.899 0-12.5 5.602-12.5 12.5v15.816c0 6.899 5.601 12.5 12.5 12.5zm0 75.778c6.902 0 12.5-5.598 12.5-12.5V88.613c0-6.902-5.598-12.5-12.5-12.5-6.899 0-12.5 5.598-12.5 12.5v15.813c0 6.902 5.601 12.5 12.5 12.5zm29.984-45.797h15.813c6.902 0 12.5-5.594 12.5-12.5 0-6.902-5.598-12.5-12.5-12.5H155.78c-6.902 0-12.5 5.598-12.5 12.5 0 6.906 5.598 12.5 12.5 12.5zm-75.777 0h15.812c6.903 0 12.5-5.594 12.5-12.5 0-6.902-5.597-12.5-12.5-12.5H80.004c-6.902 0-12.5 5.598-12.5 12.5 0 6.906 5.598 12.5 12.5 12.5zM457.46 274.695c0-6.902-5.593-12.5-12.5-12.5-6.901 0-12.5 5.598-12.5 12.5v15.813c0 6.902 5.599 12.496 12.5 12.496 6.907 0 12.5-5.594 12.5-12.496zm-12.5 63.282c-6.901 0-12.5 5.593-12.5 12.492v15.816c0 6.899 5.599 12.5 12.5 12.5 6.907 0 12.5-5.601 12.5-12.5V350.47c0-6.899-5.593-12.492-12.5-12.492zm29.985-29.989c-6.902 0-12.5 5.602-12.5 12.5 0 6.907 5.598 12.5 12.5 12.5h15.813c6.902 0 12.5-5.593 12.5-12.5 0-6.898-5.598-12.5-12.5-12.5zm-59.965 0h-15.816c-6.898 0-12.5 5.602-12.5 12.5 0 6.907 5.602 12.5 12.5 12.5h15.816c6.899 0 12.5-5.593 12.5-12.5 0-6.898-5.601-12.5-12.5-12.5zM127.016 192.969a12.49 12.49 0 0 0-10.086 8.508 12.484 12.484 0 0 0 3.16 12.812l35.746 34.844-8.441 49.199a12.504 12.504 0 0 0 4.972 12.223 12.476 12.476 0 0 0 7.352 2.386c1.992 0 3.984-.472 5.812-1.437l44.188-23.227 44.18 23.227a12.498 12.498 0 0 0 18.136-13.172l-8.437-49.2 35.742-34.843a12.486 12.486 0 0 0 3.164-12.812 12.49 12.49 0 0 0-10.09-8.508l-49.394-7.176-22.098-44.766a12.5 12.5 0 0 0-11.203-6.968c-4.762 0-9.11 2.707-11.211 6.968l-22.09 44.766zm68.906 9.777 13.789-27.941 13.797 27.941a12.485 12.485 0 0 0 9.406 6.84l30.836 4.476-22.313 21.754a12.502 12.502 0 0 0-3.593 11.067l5.265 30.71-27.578-14.5a12.5 12.5 0 0 0-11.633 0l-27.585 14.5 5.269-30.71c.7-4.059-.648-8.196-3.594-11.067l-22.312-21.754 30.832-4.476a12.491 12.491 0 0 0 9.414-6.84zM377.738 94.918l36.2 11.254 11.25 36.191a12.5 12.5 0 0 0 9.98 8.64c.652.102 1.309.15 1.957.15 4.012 0 7.836-1.938 10.2-5.282l21.886-30.941 37.898.48c4.727.04 9.137-2.586 11.301-6.824a12.5 12.5 0 0 0-1.125-13.149L494.613 65.06l12.177-35.9c1.527-4.5.363-9.484-3-12.851a12.5 12.5 0 0 0-12.852-2.997l-35.894 12.172-30.375-22.672a12.516 12.516 0 0 0-13.148-1.117 12.508 12.508 0 0 0-6.829 11.301l.485 37.899-30.942 21.878a12.513 12.513 0 0 0-5.132 12.165 12.496 12.496 0 0 0 8.636 9.98zm47.242-27.406a12.498 12.498 0 0 0 5.278-10.367L430.016 38l15.347 11.45a12.484 12.484 0 0 0 11.489 1.82l18.128-6.145-6.148 18.129a12.5 12.5 0 0 0 1.824 11.488l11.45 15.348-19.145-.246h-.164a12.5 12.5 0 0 0-10.203 5.285l-11.055 15.629-5.684-18.281a12.497 12.497 0 0 0-8.222-8.227l-18.285-5.684zM303.75 170.887c6.906 0 12.5-5.602 12.5-12.5v-73.75c0-6.907-5.594-12.5-12.5-12.5-6.898 0-12.5 5.593-12.5 12.5v73.75c0 6.898 5.598 12.5 12.5 12.5zm0-119.512c3.285 0 6.516-1.34 8.84-3.668a12.586 12.586 0 0 0 3.66-8.832 12.59 12.59 0 0 0-3.66-8.84c-2.324-2.324-5.555-3.66-8.84-3.66s-6.512 1.332-8.836 3.66a12.594 12.594 0 0 0-3.664 8.84 12.59 12.59 0 0 0 3.664 8.832 12.602 12.602 0 0 0 8.836 3.668zm0 0"/></svg>