<svg xmlns="http://www.w3.org/2000/svg" viewBox="0 0 512 512" class="u-svg-content"><path d="M512 256c0 7.93-.367 15.79-1.066 23.531-7.793 85.535-57.657 158.899-128.73 199.242h-.013a253.474 253.474 0 0 1-47.812 21c-1.379.45-2.758.88-4.14 1.297-22.024 6.668-45.305 10.438-69.403 10.88-1.606.038-3.215.05-4.836.05-71.43 0-136.035-29.258-182.469-76.445C30.906 392.254 3.594 333.844.336 269.102A256.001 256.001 0 0 1 0 256c0-41.64 9.937-80.957 27.574-115.71a257.015 257.015 0 0 1 66.403-82.497 256.05 256.05 0 0 1 51.472-32.758 253.875 253.875 0 0 1 36.988-14.305c5.07-1.523 10.2-2.882 15.395-4.093A255.226 255.226 0 0 1 234.77.867C241.77.293 248.852 0 256 0c81.605 0 154.27 38.191 201.152 97.637l.024.031a232.85 232.85 0 0 1 6.894 9.164 255.069 255.069 0 0 1 30.657 56.516v.011a254.458 254.458 0 0 1 12.445 42.895v.008c.168.836.324 1.683.48 2.52A257.636 257.636 0 0 1 512 256zm0 0" fill="#3fb777"/><path d="M512 256c0 7.93-.367 15.79-1.066 23.531-8.016.031-16.059-2.613-22.621-8.015-9.215-7.586-13.563-18.735-12.875-29.684 0-.062.011-.137.011-.2l-34.336 38.305-37.52-33.644-33.991-30.469-37.524-33.644 33.469-37.348.867-.95c-.082.013-.168.02-.238.032-10.324 1.785-21.328-.984-29.738-8.527-14.942-13.383-15.864-36.59-1.766-51.125 12.765-13.168 33.8-14.348 47.96-2.696 9.216 7.586 13.563 18.735 12.872 29.672 0 .075-.012.149-.012.211l34.336-38.304 27.324 24.492.024.031a232.85 232.85 0 0 1 6.894 9.164c-9.644.582-19.039 5.078-25.62 13.344-11.286 14.156-9.946 34.855 3.042 47.48 14.531 14.117 37.75 13.207 51.145-1.746a38.697 38.697 0 0 0 2.09-2.55 254.458 254.458 0 0 1 12.445 42.894v.012l-1.777 1.972-.868.961c.086-.02.168-.031.243-.039a33.41 33.41 0 0 1 2.882-.379A257.636 257.636 0 0 1 512 256zM234.914 66.152c-10.98 4.68-22.883 3.407-32.277-2.246-.051-.031-.114-.074-.176-.105l18.168 48.129-47.145 17.793-42.703 16.125-47.148 17.804-17.719-46.918-.453-1.199c-.02.074-.05.156-.07.23-3.176 9.977-10.711 18.473-21.274 22.454a35.206 35.206 0 0 1-16.543 2.07 257.015 257.015 0 0 1 66.403-82.496c8.195 4.137 17.953 5.129 27.18 2.059 15.39-5.122 24.796-19.602 24.292-34.817a253.875 253.875 0 0 1 36.988-14.305l4.192 11.11.45 1.21c.019-.081.05-.155.073-.23a35.52 35.52 0 0 1 10.68-16.183A255.226 255.226 0 0 1 234.77.867c9.027 3.813 16.464 11.348 19.84 21.485 5.808 17.394-2.84 36.613-19.696 43.8zM173.746 411.96c-10.043 15.353-30.469 20.493-46.57 11.724-10.492-5.704-16.875-15.829-18.266-26.707-.012-.063-.012-.137-.02-.2l-26.48 44.106-8.879-5.328C30.906 392.254 3.594 333.844.336 269.102a35.65 35.65 0 0 1 5.379 14.765c.012.074.012.149.023.211l26.477-44.117 43.207 25.934c-10.629 1.703-20.399 8.203-25.852 18.62-8.402 16.04-3.168 36.11 11.965 46.047 16.945 11.118 39.57 5.82 49.903-11.386 5.601-9.344 6.406-20.23 3.124-29.781l43.208 25.933-2.77 4.621-23.031 38.38-.668 1.105c.074-.032.156-.063.23-.082 9.801-3.711 21.13-3.075 30.817 2.738 17.195 10.32 22.496 32.933 11.398 49.87zm268.82-20.624-23.562 44.543c-2.277-10.512-9.277-19.914-19.988-24.805-16.47-7.523-36.227-1.222-45.329 14.43-10.187 17.523-3.687 39.82 14.055 49.215a35.39 35.39 0 0 0 14.45 4.054 253.474 253.474 0 0 1-47.813 21l-4.621-2.445-1.137-.605.094.218a35.412 35.412 0 0 1 1.523 4.13c-22.023 6.667-45.304 10.437-69.402 10.878a35.146 35.146 0 0 1 3.398-15.883c5.13-10.785 14.891-17.703 25.684-19.675.062-.012.137-.024.2-.043l-45.477-24.055 23.574-44.543 21.347-40.352 23.563-44.546 44.336 23.449 1.129.605c-.031-.074-.067-.144-.086-.218-4.23-9.594-4.2-20.942 1.078-30.918 9.383-17.735 31.668-24.243 49.184-14.075 15.859 9.192 22.097 29.328 14.218 45.868-5.14 10.785-14.898 17.703-25.683 19.675-.074.024-.145.032-.207.043zm0 0" fill="#2da365"/><path d="M382.121 449.578v29.246a253.953 253.953 0 0 1-83.906 29.707 256.011 256.011 0 0 1-19.563 2.477 244.69 244.69 0 0 1-12.414.785A240.06 240.06 0 0 1 256 512a259.01 259.01 0 0 1-22.676-.992 254.505 254.505 0 0 1-54.855-10.961c-.63-.2-1.266-.406-1.89-.617a254.007 254.007 0 0 1-46.7-20.606v-29.246c0-44.012 29.887-81.043 70.48-91.898a94.185 94.185 0 0 1 16.875-2.914c2.57-.211 5.16-.317 7.786-.317h61.953c6.925 0 13.675.735 20.175 2.145.375.07.75.156 1.118.238 1.097.25 2.195.523 3.27.816.03.008.054.008.085.02a94.602 94.602 0 0 1 29.54 13.71c24.753 17.177 40.96 45.798 40.96 78.2zm0 0" fill="#dd3033"/><path d="M382.121 449.578v29.246a253.953 253.953 0 0 1-83.906 29.707 256.011 256.011 0 0 1-19.563 2.477 244.69 244.69 0 0 1-12.414.785A240.06 240.06 0 0 1 256 512a259.01 259.01 0 0 1-22.676-.992 254.505 254.505 0 0 1-54.855-10.961c-.63-.2-1.266-.406-1.89-.617v-49.852c0-44.012 29.882-81.043 70.476-91.898a94.185 94.185 0 0 1 16.875-2.914 95.086 95.086 0 0 1 7.785-.317h15.258c6.925 0 13.675.735 20.175 2.145.375.07.75.156 1.118.238 1.097.25 2.195.523 3.27.816.03.008.054.008.085.02a94.602 94.602 0 0 1 29.54 13.71c24.753 17.177 40.96 45.798 40.96 78.2zm0 0" fill="#f74f4f"/><path d="m311.848 356.59-.23 1.078-32.97 153.34c-7.457.656-15.023.992-22.652.992-7.648 0-15.203-.336-22.672-.992L200.355 357.68l-.23-1.09zm0 0" fill="#f2f0ec"/><path d="m255.984 393.395-42.828 23.804-13.027-60.605 26.61-15.676m29.245 52.477 42.832 23.804 13.028-60.605-26.614-15.676" fill="#d8d5d0"/><path d="M128.11 331.516V188.039c0-14.578 2.433-28.863 7.23-42.453 17.953-51.102 66.445-85.441 120.652-85.441 6.715 0 13.414.52 19.926 1.546 29.785 4.657 57.11 19.86 76.922 42.809 20.02 23.191 31.047 52.86 31.047 83.54v143.476" fill="#ffe152"/><path d="M180.715 193.64c0 50.75 29.719 109.465 46.039 137.876h-98.649V188.039c0-14.574 2.434-28.86 7.23-42.453 17.849-50.805 65.892-85.043 119.724-85.43-39.32.98-74.344 64.063-74.344 133.485zm0 0" fill="#e8c934"/><path d="M289.941 317.8v41.657c0 15.25-10.054 28.14-23.906 32.422a33.948 33.948 0 0 1-10.043 1.516c-18.742 0-33.937-15.196-33.937-33.938v-41.656zm0 0" fill="#eab599"/><path d="M289.941 356.816v2.641c0 15.25-10.054 28.14-23.906 32.422-12.496-3.844-21.89-14.707-23.625-28.004a116.192 116.192 0 0 0 25.688-1.309 115.074 115.074 0 0 0 21.843-5.75zM162.887 249.535c0 15.711-11.477 28.742-26.508 31.16a31.64 31.64 0 0 1-5.055.403c-17.437 0-31.566-14.125-31.566-31.563s14.129-31.566 31.566-31.566c1.723 0 3.414.14 5.055.406 15.031 2.418 26.508 15.445 26.508 31.16zm0 0" fill="#f6caae"/><path d="M162.887 249.535c0 15.711-11.477 28.742-26.508 31.16a117.375 117.375 0 0 1-4.188-31.16 117.31 117.31 0 0 1 4.188-31.16c15.031 2.418 26.508 15.445 26.508 31.16zm0 0" fill="#eab599"/><path d="M142.605 249.535c0 6.23-5.05 11.281-11.28 11.281s-11.286-5.05-11.286-11.28c0-6.231 5.055-11.282 11.285-11.282s11.281 5.05 11.281 11.281zm0 0" fill="#eab599"/><path d="M337.047 209.23v108.5c-16.774 16.008-38.277 27.094-62.203 30.95-.188.03-.387.062-.574.097-5.946.95-12.051 1.418-18.278 1.418-64.855 0-117.437-52.578-117.437-117.433v-44.723c0-5.727.41-11.36 1.203-16.863 27.941 20.09 68.004 18.105 93.527-6.02 8.457-7.984 14.328-17.492 17.649-27.574 1.851 17.656 9.93 34.848 24.242 48.379 17.043 16.09 39.562 23.855 61.87 23.27zm0 0" fill="#eab599"/><path d="M337.047 209.23v108.5c-16.774 16.008-38.277 27.094-62.203 30.95-.188.03-.387.062-.574.097-56.176-8.777-99.141-57.386-99.141-116.015v-44.723c0-1.191.02-2.371.062-3.555 20.711 2.121 42.215-4.312 58.094-19.328 8.457-7.984 14.328-17.492 17.649-27.574 1.851 17.656 9.93 34.848 24.242 48.379 17.043 16.09 39.562 23.855 61.87 23.27zm0 0" fill="#f6caae"/><path d="M319.066 222.844c0-10.774-8.73-19.508-19.504-19.508s-19.503 8.734-19.503 19.508m-48.109 0c0-10.774-8.735-19.508-19.505-19.508-10.773 0-19.507 8.734-19.507 19.508" fill="#eab599"/><path d="M225.766 231.145c0 7.359-5.965 13.324-13.32 13.324-7.36 0-13.325-5.965-13.325-13.324 0-7.356 5.965-13.32 13.324-13.32 7.356 0 13.32 5.964 13.32 13.32zm87.117 0c0 7.359-5.965 13.324-13.32 13.324-7.36 0-13.325-5.965-13.325-13.324 0-7.356 5.965-13.32 13.325-13.32 7.355 0 13.32 5.964 13.32 13.32zm0 0" fill="#3d4159"/><path d="M269.324 264.688H242.68a5.746 5.746 0 1 1 0-11.493h26.644a5.746 5.746 0 1 1 0 11.492zm-13.32 36.359c-9.836 0-19.668-2.461-28.633-7.39a5.224 5.224 0 0 1 5.031-9.157c14.778 8.125 32.422 8.125 47.2 0a5.22 5.22 0 0 1 7.093 2.063 5.22 5.22 0 0 1-2.062 7.093c-8.961 4.93-18.797 7.39-28.63 7.39zm0 0" fill="#eab599"/><path d="M223.05 228.797a5.706 5.706 0 0 1-5.706 5.707 5.707 5.707 0 0 1-5.711-5.707 5.708 5.708 0 0 1 5.71-5.711 5.707 5.707 0 0 1 5.708 5.71zm87.77 0a5.706 5.706 0 1 1-11.414 0 5.707 5.707 0 1 1 11.414 0zm0 0" fill="#fff"/><path d="M335.934 263.594c0 8.082-6.551 14.629-14.63 14.629-8.077 0-14.628-6.547-14.628-14.63 0-8.077 6.55-14.628 14.629-14.628 8.078 0 14.629 6.55 14.629 14.629zm-130.614 0c0 8.082-6.55 14.629-14.629 14.629s-14.629-6.547-14.629-14.63c0-8.077 6.551-14.628 14.63-14.628s14.628 6.55 14.628 14.629zm0 0" fill="#eab599"/><path d="M51.148 346.023 62.2 395.187l50.192-11.28c-.043.05-.09.105-.13.156-6.913 8.515-9.835 20.117-6.726 31.648 4.774 17.695 22.594 28.937 40.63 25.617 19.917-3.664 32.624-23.098 28.218-42.672-2.477-11.015-9.832-19.656-19.278-24.195-.07-.035-.144-.074-.214-.106l1.254-.28 48.93-11-5.259 1.175 5.258-1.176-11.054-49.168c-4.653 8.969-13.079 15.899-23.708 18.29-19.59 4.402-39.03-8.317-42.68-28.255-3.257-17.808 7.661-35.445 25.063-40.433 11.313-3.246 22.75-.656 31.313 5.855L172.957 220.2l-50.191 11.281c.043-.05.09-.105.129-.156 6.91-8.515 9.832-20.117 6.726-31.648-4.773-17.7-22.598-28.938-40.629-25.617-19.918 3.664-32.625 23.097-28.222 42.671 2.48 11.016 9.832 19.657 19.28 24.196.067.035.141.074.216.105l-1.254.282-48.93 11 11.055 49.167" fill="#3d4159"/><path d="M163.316 449.078v29.746a26.596 26.596 0 0 1-4.117 14.242 253.867 253.867 0 0 1-29.32-14.242 253.925 253.925 0 0 1-19.852-12.508v-17.238c0-14.715 11.934-26.648 26.645-26.648 3.512 0 6.855.68 9.926 1.914a26.44 26.44 0 0 1 8.914 5.894c4.816 4.824 7.804 11.48 7.804 18.84zm0 0" fill="#eab599"/><path d="M163.316 449.078v29.746a26.596 26.596 0 0 1-4.117 14.242 253.867 253.867 0 0 1-29.32-14.242v-29.746c0-11.203 6.918-20.797 16.719-24.734a26.44 26.44 0 0 1 8.914 5.894c4.816 4.824 7.804 11.48 7.804 18.84zm0 0" fill="#f6caae"/></svg>